<svg width="87" height="41" viewBox="0 0 87 41" fill="none" xmlns="http://www.w3.org/2000/svg">
<path fill-rule="evenodd" clip-rule="evenodd" d="M0.581537 0C0.260363 0 0 0.260363 0 0.581537V26.5568C0 26.878 0.260363 27.1384 0.581537 27.1384H14.9261C15.2473 27.1384 15.5076 26.878 15.5076 26.5568V15.3125L13.569 14.1737V14.1808L13.1465 13.9255L12.0724 13.2945C12.0382 13.2744 12.0082 13.2499 11.9828 13.2221L9.1552 11.5131C8.98122 11.4079 8.75494 11.4637 8.64979 11.6377C7.59826 13.3775 8.15617 15.6403 9.89594 16.6918L13.569 18.9118V25.2H2.32596C2.11184 25.2 1.93826 25.0265 1.93826 24.8123V2.5201C1.93826 2.19892 2.19863 1.93856 2.5198 1.93856H13.1813C13.3954 1.93856 13.569 2.11213 13.569 2.32625V10.9309L15.5076 12.0698V0.581537C15.5076 0.260363 15.2473 0 14.9261 0H0.581537ZM6.39678 2.81069C6.28972 2.81069 6.20294 2.89748 6.20294 3.00454C6.20294 3.11159 6.28972 3.19838 6.39678 3.19838H9.11062C9.21768 3.19838 9.30447 3.11159 9.30447 3.00454C9.30447 2.89748 9.21768 2.81069 9.11062 2.81069H6.39678ZM8.7235 23.1645C8.7235 23.6998 8.28956 24.1337 7.75427 24.1337C7.21898 24.1337 6.78504 23.6998 6.78504 23.1645C6.78504 22.6292 7.21898 22.1952 7.75427 22.1952C8.28956 22.1952 8.7235 22.6292 8.7235 23.1645ZM19.0943 22.4071C19.5078 22.6526 19.9601 22.7754 20.4512 22.7754H29.1936V14.2074C29.1936 13.7163 29.0708 13.2705 28.8253 12.8699C28.5927 12.4692 28.2696 12.1462 27.8561 11.9006C27.4555 11.6551 27.0096 11.5323 26.5185 11.5323H17.7761V14.0717H26.4216C26.4862 14.0717 26.5379 14.0975 26.5767 14.1492C26.6284 14.188 26.6542 14.2397 26.6542 14.3043V15.8745H17.7761V20.1003C17.7761 20.5914 17.8924 21.0372 18.125 21.4378C18.3706 21.8385 18.6936 22.1615 19.0943 22.4071ZM26.6542 20.236H20.5481C20.4835 20.236 20.4253 20.2166 20.3736 20.1778C20.3349 20.1261 20.3155 20.068 20.3155 20.0034V18.1618H26.6542V20.236ZM31.9915 22.4071C32.3921 22.6526 32.8444 22.7754 33.3484 22.7754H42.1102V7.84926H39.5709V11.5323H33.3484C32.8444 11.5323 32.3921 11.6551 31.9915 11.9006C31.5909 12.1462 31.2678 12.4692 31.0223 12.8699C30.7897 13.2705 30.6734 13.7163 30.6734 14.2074V20.1003C30.6734 20.5914 30.7897 21.0372 31.0223 21.4378C31.2678 21.8385 31.5909 22.1615 31.9915 22.4071ZM39.3383 20.236H33.4647C33.4001 20.236 33.342 20.2166 33.2903 20.1778C33.2515 20.1261 33.2321 20.068 33.2321 20.0034V14.3043C33.2321 14.2397 33.2515 14.188 33.2903 14.1492C33.342 14.0975 33.4001 14.0717 33.4647 14.0717H39.3383C39.4029 14.0717 39.4546 14.0975 39.4933 14.1492C39.545 14.188 39.5709 14.2397 39.5709 14.3043V20.0034C39.5709 20.068 39.545 20.1261 39.4933 20.1778C39.4546 20.2166 39.4029 20.236 39.3383 20.236ZM45.8319 24.6557V27.2144H52.7134C53.2045 27.2144 53.6504 27.0917 54.051 26.8461C54.4645 26.6135 54.7876 26.2969 55.0202 25.8963C55.2528 25.4957 55.3691 25.0434 55.3691 24.5394V14.2074C55.3691 13.7163 55.2464 13.2705 55.0008 12.8699C54.7682 12.4692 54.4516 12.1462 54.051 11.9006C53.6504 11.6551 53.2045 11.5323 52.7134 11.5323H46.6267C46.1485 11.5323 45.7027 11.6551 45.2892 11.9006C44.8885 12.1462 44.5655 12.4692 44.3199 12.8699C44.0744 13.2705 43.9516 13.7163 43.9516 14.2074V20.1003C43.9516 20.5914 44.0744 21.0372 44.3199 21.4378C44.5655 21.8385 44.8885 22.1615 45.2892 22.4071C45.7027 22.6526 46.1485 22.7754 46.6267 22.7754H52.8298V24.4231C52.8298 24.4877 52.8039 24.5394 52.7522 24.5781C52.7134 24.6298 52.6618 24.6557 52.5971 24.6557H45.8319ZM52.5971 20.236H46.7236C46.659 20.236 46.6008 20.2166 46.5492 20.1778C46.5104 20.1261 46.491 20.068 46.491 20.0034V14.3043C46.491 14.2397 46.5104 14.188 46.5492 14.1492C46.6008 14.0975 46.659 14.0717 46.7236 14.0717H52.5971C52.6618 14.0717 52.7134 14.0975 52.7522 14.1492C52.8039 14.188 52.8298 14.2397 52.8298 14.3043V20.0034C52.8298 20.068 52.8039 20.1261 52.7522 20.1778C52.7134 20.2166 52.6618 20.236 52.5971 20.236ZM58.3177 22.4071C58.7183 22.6526 59.1642 22.7754 59.6552 22.7754H68.3977V20.236H59.7522C59.6875 20.236 59.6294 20.2166 59.5777 20.1778C59.5389 20.1261 59.5195 20.068 59.5195 20.0034V18.4332H68.3977V14.2074C68.3977 13.7163 68.2749 13.2705 68.0294 12.8699C67.7968 12.4692 67.4737 12.1462 67.0601 11.9006C66.6595 11.6551 66.2137 11.5323 65.7226 11.5323H59.6552C59.1642 11.5323 58.7183 11.6551 58.3177 11.9006C57.9171 12.1462 57.594 12.4692 57.3485 12.8699C57.1029 13.2705 56.9802 13.7163 56.9802 14.2074V20.1003C56.9802 20.5914 57.1029 21.0372 57.3485 21.4378C57.594 21.8385 57.9171 22.1615 58.3177 22.4071ZM65.8583 16.1459H59.5195V14.3043C59.5195 14.2397 59.5389 14.188 59.5777 14.1492C59.6294 14.0975 59.6875 14.0717 59.7522 14.0717H65.6257C65.6903 14.0717 65.742 14.0975 65.7808 14.1492C65.8325 14.188 65.8583 14.2397 65.8583 14.3043V16.1459ZM71.778 22.4071C72.1786 22.6526 72.6245 22.7754 73.1155 22.7754H77.3608V20.236H73.2125C73.1479 20.236 73.0897 20.2166 73.038 20.1778C72.9992 20.1261 72.9799 20.068 72.9799 20.0034V14.0717H77.3608V11.5323H72.9799V8.08187H70.4405V20.1003C70.4405 20.5914 70.5632 21.0372 70.8088 21.4378C71.0543 21.8385 71.3774 22.1615 71.778 22.4071Z" fill="#343A40"/>
<path fill-rule="evenodd" clip-rule="evenodd" d="M35.2421 40.5132L32.3828 27.7219H17.1621L16.2852 25.3957H34.4501L34.4642 25.3926L34.4649 25.3957H34.5066V25.5826L35.2676 28.9869L35.2685 28.9867L35.8681 31.6693C35.8692 31.6768 35.8706 31.6844 35.8723 31.6922L37.1156 37.254C37.1297 37.317 37.1613 37.3696 37.2104 37.4115C37.2693 37.4381 37.3303 37.4443 37.3933 37.4302L43.1254 36.1489C43.1885 36.1348 43.2347 36.1046 43.2641 36.0583C43.3032 35.9966 43.3158 35.9342 43.3017 35.8712L42.0584 30.3094C42.0443 30.2463 42.0078 30.2015 41.9489 30.1749C41.8998 30.133 41.8437 30.119 41.7807 30.1331L38.2818 30.9152L37.7278 28.437L41.3213 27.6337C41.8005 27.5266 42.2624 27.5492 42.707 27.7014C43.1641 27.8508 43.5499 28.0956 43.8643 28.4358C44.1913 28.7732 44.4084 29.1816 44.5155 29.6608L45.801 35.4118C45.9082 35.891 45.8856 36.3529 45.7334 36.7975C45.5938 37.2392 45.3489 37.6249 44.9989 37.9548C44.775 38.1718 44.5199 38.3404 44.2336 38.4606L44.2295 38.4424C44.0481 37.6603 43.2669 37.1733 42.4848 37.3547C41.7026 37.5361 41.2156 38.3172 41.397 39.0994C41.3998 39.1114 41.4027 39.1234 41.4058 39.1354L39.5137 39.5583L39.509 39.5374C39.3276 38.7552 38.5464 38.2682 37.7643 38.4496C36.9827 38.6309 36.4958 39.411 36.6761 40.1926L35.2421 40.5132ZM39.2565 39.837C39.2565 40.4794 38.7357 41.0001 38.0934 41.0001C37.451 41.0001 36.9303 40.4794 36.9303 39.837C36.9303 39.1947 37.451 38.674 38.0934 38.674C38.7357 38.674 39.2565 39.1947 39.2565 39.837ZM42.8426 39.9339C43.485 39.9339 44.0057 39.4132 44.0057 38.7709C44.0057 38.1285 43.485 37.6078 42.8426 37.6078C42.2003 37.6078 41.6796 38.1285 41.6796 38.7709C41.6796 39.4132 42.2003 39.9339 42.8426 39.9339ZM47.3342 32.7089V40.42H49.6197V32.7961C49.6197 32.7379 49.6371 32.6914 49.672 32.6565C49.7185 32.61 49.7709 32.5867 49.829 32.5867H55.3594V30.3013H49.7418C49.3115 30.3013 48.9102 30.4118 48.538 30.6328C48.1775 30.8537 47.8867 31.1445 47.6657 31.5051C47.4447 31.8656 47.3342 32.2669 47.3342 32.7089ZM57.8914 40.0886C58.2636 40.3095 58.6707 40.42 59.1127 40.42H64.5733C65.0269 40.42 65.434 40.3095 65.7945 40.0886C66.1551 39.8676 66.44 39.5768 66.6494 39.2162C66.8704 38.8557 66.9809 38.4544 66.9809 38.0125V30.3013H64.6954V37.9252C64.6954 37.9834 64.6722 38.0357 64.6256 38.0823C64.5908 38.1171 64.5442 38.1346 64.4861 38.1346H59.1999C59.1418 38.1346 59.0894 38.1171 59.0429 38.0823C59.008 38.0357 58.9906 37.9834 58.9906 37.9252V30.3013H56.7051V38.0125C56.7051 38.4544 56.8098 38.8557 57.0191 39.2162C57.2401 39.5768 57.5309 39.8676 57.8914 40.0886ZM69.5944 40.0886C69.9549 40.3095 70.3562 40.42 70.7982 40.42H76.2588C76.7124 40.42 77.1195 40.3095 77.48 40.0886C77.8406 39.8676 78.1313 39.5768 78.3523 39.2162C78.5733 38.8557 78.6838 38.4544 78.6838 38.0125V36.6168C78.6838 36.1748 78.5733 35.7736 78.3523 35.413C78.1313 35.0524 77.8406 34.7617 77.48 34.5407C77.1195 34.3197 76.7124 34.2092 76.2588 34.2092H70.8854C70.8272 34.2092 70.7749 34.1918 70.7284 34.1569C70.6935 34.1104 70.676 34.058 70.676 33.9999V32.7961C70.676 32.7379 70.6935 32.6914 70.7284 32.6565C70.7749 32.61 70.8272 32.5867 70.8854 32.5867H76.1716C76.2297 32.5867 76.2762 32.61 76.3111 32.6565C76.3576 32.6914 76.3809 32.7379 76.3809 32.7961V33.0927H78.6838V32.7089C78.6838 32.2669 78.5733 31.8656 78.3523 31.5051C78.1313 31.1445 77.8406 30.8537 77.48 30.6328C77.1195 30.4118 76.7124 30.3013 76.2588 30.3013H70.7982C70.3562 30.3013 69.9549 30.4118 69.5944 30.6328C69.2338 30.8537 68.9431 31.1445 68.7221 31.5051C68.5011 31.8656 68.3906 32.2669 68.3906 32.7089V34.1045C68.3906 34.5465 68.5011 34.9478 68.7221 35.3083C68.9431 35.6689 69.2338 35.9596 69.5944 36.1806C69.9549 36.4016 70.3562 36.5121 70.7982 36.5121H76.1716C76.2297 36.5121 76.2762 36.5354 76.3111 36.5819C76.3576 36.6168 76.3809 36.6633 76.3809 36.7215V37.9252C76.3809 37.9834 76.3576 38.0357 76.3111 38.0823C76.2762 38.1171 76.2297 38.1346 76.1716 38.1346H70.8854C70.8272 38.1346 70.7749 38.1171 70.7284 38.0823C70.6935 38.0357 70.676 37.9834 70.676 37.9252V37.6287H68.3906V38.0125C68.3906 38.4544 68.5011 38.8557 68.7221 39.2162C68.9431 39.5768 69.2338 39.8676 69.5944 40.0886ZM81.6417 40.0886C82.0023 40.3095 82.4035 40.42 82.8455 40.42H86.6662V38.1346H82.9327C82.8746 38.1346 82.8223 38.1171 82.7757 38.0823C82.7408 38.0357 82.7234 37.9834 82.7234 37.9252V32.5867H86.6662V30.3013H82.7234V27.1959H80.438V38.0125C80.438 38.4544 80.5484 38.8557 80.7694 39.2162C80.9904 39.5768 81.2812 39.8676 81.6417 40.0886Z" fill="#FF6E06"/>
</svg>
