<svg width="280" height="40" viewBox="0 0 280 40" fill="none" xmlns="http://www.w3.org/2000/svg">
<path d="M15.1867 13.77L9.95 26.2634H6.53333L3.95667 16.2917C3.8 15.6784 3.665 15.4534 3.18833 15.195C2.41167 14.7734 1.12833 14.3784 0 14.1317L0.0766667 13.77H5.57667C5.93608 13.7697 6.28378 13.8978 6.55701 14.1313C6.83025 14.3648 7.011 14.6883 7.06667 15.0434L8.42833 22.2734L11.7917 13.77H15.1867ZM28.575 22.185C28.5883 18.8867 24.015 18.705 24.0467 17.2317C24.0567 16.7834 24.4833 16.3067 25.4167 16.185C26.5105 16.0812 27.6121 16.2746 28.605 16.745L29.1717 14.095C28.2049 13.7316 27.1811 13.5437 26.1483 13.54C22.9533 13.54 20.705 15.24 20.685 17.6717C20.665 19.47 22.29 20.4717 23.515 21.0717C24.775 21.6834 25.1983 22.0767 25.1917 22.6234C25.1833 23.4634 24.1883 23.8317 23.2583 23.8467C21.6333 23.8717 20.6917 23.4084 19.9383 23.0584L19.3533 25.795C20.1083 26.1417 21.5017 26.445 22.9467 26.4584C26.3417 26.4584 28.5633 24.7817 28.575 22.185ZM37.01 26.2634H40L37.3917 13.77H34.6317C34.3368 13.7673 34.0479 13.8532 33.8024 14.0167C33.5569 14.1801 33.3662 14.4136 33.255 14.6867L28.4067 26.2634H31.8L32.475 24.3967H36.6217L37.01 26.2634ZM33.405 21.8367L35.105 17.145L36.085 21.8367H33.405ZM19.805 13.77L17.1333 26.2634H13.9L16.575 13.77H19.805Z" fill="#343A40"/>
<path d="M79.1507 7.19287C79.1507 7.19287 75.6815 19.4462 75.9765 19.4462C76.2715 19.4462 89.7065 21.882 89.7065 21.882L79.1507 7.19287Z" stroke="#343A40" stroke-width="0.833333" stroke-linecap="round" stroke-linejoin="round"/>
<path d="M79.1511 7.19362L65.2744 5.12695L75.9769 19.447L77.8227 27.9353L89.7069 21.8828L92.8069 14.5378M92.8069 14.5378L85.3277 15.7886M92.8069 14.5378L95.8336 17.3795H91.6077" stroke="#343A40" stroke-width="0.833333" stroke-linecap="round" stroke-linejoin="round"/>
<path d="M77.8226 27.9351L78.1176 29.5226L71.4376 34.8734L75.9767 19.4467M89.7067 21.8826L89.2642 24.2817L79.0401 27.3151M67.0459 7.49756H64.1667L73.3701 15.9584" stroke="#343A40" stroke-width="0.833333" stroke-linecap="round" stroke-linejoin="round"/>
<path d="M136.55 21.65C136.716 21.65 140.583 21.8167 142.883 21.25H142.9C145.55 20.6 149.233 18.7333 150.183 12.6333C150.183 12.6333 152.3 5 141.8 5H132.783C131.966 5 131.266 5.6 131.133 6.4L127.3 30.6667C127.216 31.1667 127.616 31.6333 128.116 31.6333H133.833L135.233 22.7667C135.333 22.1333 135.883 21.65 136.55 21.65Z" fill="#343A40"/>
<path d="M151.65 13.8169C150.3 20.0336 146.05 23.3169 139.283 23.3169H136.833L135.117 34.1836C135.05 34.6169 135.383 35.0002 135.817 35.0002H138.983C139.55 35.0002 140.05 34.5836 140.133 34.0169C140.267 33.3502 141 28.4836 141.15 27.6502C141.233 27.0836 141.733 26.6669 142.3 26.6669H143.033C147.733 26.6669 151.417 24.7502 152.5 19.2336C152.933 17.0002 152.7 15.1669 151.65 13.8169Z" fill="#343A40"/>
<path d="M195.733 5.33154C192.63 6.1664 189.847 7.90952 187.742 10.3372C185.636 12.7648 184.304 15.7663 183.917 18.9563C183.529 22.1463 184.104 25.3793 185.567 28.2404C187.03 31.1015 189.314 33.4602 192.127 35.0137C194.94 36.5672 198.153 37.2447 201.354 36.9592C204.555 36.6736 207.597 35.4381 210.091 33.4113C212.584 31.3844 214.415 28.6586 215.349 25.5837C216.282 22.5088 216.276 19.2251 215.33 16.154" stroke="#343A40" stroke-width="0.833333" stroke-linecap="round" stroke-linejoin="round"/>
<path d="M192.433 21.5776C192.381 18.0668 194.57 11.5026 202 8.29597L198.997 2.95264C194.519 5.14097 188.514 12.6726 192.432 21.5776" stroke="#343A40" stroke-width="0.833333" stroke-linecap="round" stroke-linejoin="round"/>
<path d="M198.447 10.3408C196.956 12.518 196.112 15.0725 196.012 17.7091C197.545 14.55 202.45 9.66913 210.528 10.145L210.248 4.02246C207.032 4.11687 203.931 5.24347 201.404 7.23579" stroke="#343A40" stroke-width="0.833333" stroke-linecap="round" stroke-linejoin="round"/>
<path d="M208.72 10.1273C206.862 10.5817 205.119 11.4186 203.602 12.5848C202.086 13.7509 200.829 15.2206 199.913 16.8998C202.702 14.7665 209.278 12.6123 216.28 16.6682L218.781 11.0732C216.205 9.86029 213.333 9.41698 210.511 9.79649" stroke="#343A40" stroke-width="0.833333" stroke-linecap="round" stroke-linejoin="round"/>
<path d="M191.198 16.725C190.438 18.3059 190.122 20.0639 190.284 21.8107C190.446 23.5575 191.08 25.2273 192.119 26.6412C193.157 28.0552 194.561 29.16 196.179 29.8373C197.797 30.5147 199.569 30.739 201.305 30.4863C203.041 30.2337 204.676 29.5135 206.034 28.403C207.392 27.2925 208.422 25.8334 209.015 24.1822C209.607 22.5309 209.739 20.7496 209.396 19.029C209.054 17.3085 208.25 15.7135 207.07 14.415" stroke="#343A40" stroke-width="0.833333" stroke-linecap="round" stroke-linejoin="round"/>
<g clip-path="url(#clip0_117_683)">
<path fill-rule="evenodd" clip-rule="evenodd" d="M260 29.9633C258.363 31.0091 256.474 31.5953 254.533 31.6606C252.591 31.7258 250.667 31.2677 248.964 30.3342C247.26 29.4007 245.838 28.0262 244.848 26.3547C243.858 24.6832 243.335 22.7761 243.335 20.8333C243.335 18.8905 243.858 16.9835 244.848 15.312C245.838 13.6404 247.26 12.2659 248.964 11.3324C250.667 10.399 252.591 9.94086 254.533 10.0061C256.474 10.0714 258.363 10.6576 260 11.7033C261.637 10.6576 263.526 10.0714 265.468 10.0061C267.409 9.94086 269.333 10.399 271.037 11.3324C272.74 12.2659 274.162 13.6404 275.152 15.312C276.142 16.9835 276.665 18.8905 276.665 20.8333C276.665 22.7761 276.142 24.6832 275.152 26.3547C274.162 28.0262 272.74 29.4007 271.037 30.3342C269.333 31.2677 267.409 31.7258 265.468 31.6606C263.526 31.5953 261.637 31.0091 260 29.9633ZM246.667 20.8333C246.666 19.5678 246.986 18.3228 247.596 17.2141C248.207 16.1055 249.088 15.1693 250.157 14.4927C251.227 13.8162 252.45 13.4212 253.713 13.3447C254.976 13.2682 256.238 13.5125 257.382 14.055C255.837 15.976 254.996 18.3681 255 20.8333C255 23.4 255.892 25.755 257.382 27.6117C256.238 28.1542 254.976 28.3985 253.713 28.322C252.45 28.2454 251.227 27.8505 250.157 27.1739C249.088 26.4974 248.207 25.5612 247.596 24.4525C246.986 23.3439 246.666 22.0989 246.667 20.8333ZM262.618 14.055C263.762 13.5133 265.023 13.2695 266.286 13.3464C267.549 13.4232 268.771 13.8182 269.84 14.4946C270.909 15.171 271.79 16.1068 272.4 17.2149C273.01 18.323 273.33 19.5675 273.33 20.8325C273.33 22.0975 273.01 23.342 272.4 24.4501C271.79 25.5582 270.909 26.494 269.84 27.1704C268.771 27.8468 267.549 28.2418 266.286 28.3186C265.023 28.3955 263.762 28.1517 262.618 27.61C264.163 25.6895 265.004 23.298 265 20.8333C265 18.2667 264.108 15.9117 262.618 14.055ZM260 16.1183C261.042 17.4067 261.667 19.0467 261.667 20.8333C261.67 22.5498 261.081 24.2149 260 25.5483C258.919 24.2149 258.331 22.5498 258.333 20.8333C258.333 19.0467 258.958 17.4067 260 16.1183Z" fill="#343A40"/>
</g>
<defs>
<clipPath id="clip0_117_683">
<rect width="40" height="40" fill="white" transform="translate(240)"/>
</clipPath>
</defs>
</svg>
